<?xml version="1.0" encoding="UTF-8"?>
<svg id="Layer_1" data-name="Layer 1" xmlns="http://www.w3.org/2000/svg" viewBox="0 0 595.28 841.89">
  <defs>
    <style>
      .cls-1 {
        fill: none;
        stroke: #231f20;
        stroke-miterlimit: 10;
        stroke-width: 5px;
      }

      .cls-2 {
        font-size: 36px;
      }

      .cls-2, .cls-3 {
        fill: #231f20;
        font-family: Roboto-Black, Roboto;
        font-weight: 800;
      }

      .cls-3 {
        font-size: 35.6px;
      }
    </style>
  </defs>
  <g>
    <path d="M85.77,389.06c2.02-45.44,24-91.62,56.07-123.51,58.6-58.26,149.27-75.61,225.92-43.87,101.37,41.99,151.33,155.37,104.8,257.14-30.17,66-101,110.87-173.42,114.18h-23.04l-18.64-1.94c-85.64-12-157.93-78.79-170.14-164.85l-1.56-15.24c.24-7.28-.32-14.64,0-21.91ZM441.66,283.18c-64.7-78.9-181.94-94.43-266.51-37.57-91.64,61.61-112.23,186.18-40.29,271.67,64.66,76.84,179.67,92.54,263.79,37.56,93.27-60.96,114.06-185.02,43.01-271.67Z"/>
    <path d="M253.07,501.61l-3.69,8.59c-2.87,3.49-5.32,7.03-8.76,10.11-.66.59-3.89,3.38-4.35,3.58-.8.34-.51-.49-.47-.85.13-1.25.71-2.71.95-3.97.05-.27.4-1.58-.28-1.04-5.72,7.87-14.8,13.06-16.8,23.23-1.78-2.34-2.84-4.98-4.9-7.18-2.52-2.7-5.86-5.3-8.52-8.1-1.53-1.61-3.03-3.31-4.33-5.11-.19,3.22-.71,6.42-1.88,9.44-.91-1.14-1.04-2.71-1.63-4.03-3.34-7.49-9.67-11.39-14.99-17.11-2.31-2.49-4.11-5.44-6.42-7.93.09,2.06.34,4.25.92,6.25.17.61.67.58.75.85.49,1.73,1.11,3.86,1.53,5.58.14.57,0,.63-.54.54-4.38-3.37-7.7-7.97-12.1-11.32-2.22-1.69-5.12-3.04-7.33-4.75-5.07-3.92-10.18-10.58-12.87-16.4-.7-.09-.28.76-.21,1.15.48,2.55,1.43,5.03,2.1,7.53l-4.71-3.41c-6.73-5.56-12.48-13.62-14.44-22.2-.51-2.24-.92-4.58-.87-6.87-.55-.09-.52.67-.63,1.06-.99,3.5-.88,7.42-.88,11.03-7.99-10.88-11.06-26-7.55-39.28-.29-.31-2.26,1.32-2.77,1.57-1.16.57-2.48.88-3.65,1.45l2.68-5.74c3.66-6.89,2.22-16.12,3.83-23.81.53-2.54,1.98-5.05,2.54-7.28.05-.21.11-.61-.18-.56-.79.84-1.68,1.59-2.45,2.46-.33.37-1.35,2.65-1.9,2.07-.13-.14.4-3.33.48-3.86,1.14-7.53,4.14-14.58,9.34-20.12-.74-.24-2.02.37-2.74.66s-4.18,2.58-3.61.55c.96-3.39,4.86-8.57,7.29-11.22,2.89-3.15,6.58-5.65,10.39-7.55.25-.38-7.09-3.23-7.17-4.9,7,.86,12.77-3.11,18.89-5.47s12.61-4.43,19.25-4.36l-3.7-1.02c-1.68-.37-3.53-.29-5.18-.49-.53-.06-1.09-.22-.56-.75.24-.24,5.65-1.83,6.48-2.02,9.53-2.18,20.25-1.64,29.22,2.38,1.23.55,2.28,1.56,3.57,1.9.48-.47-3.41-4.44-3.96-4.91-1.08-.9-3.6-1.81.37-1.5,6.48.49,13.05,4.14,18.14,7.92,1.02-.95-2.8-5.02-2.46-5.28,5.37.69,9.83,5.13,12.67,9.44,2.24-1.44,4.42-3.39,7.35-3.02l-3.4,3.21-.75,1.32c4.81-2.84,10.49-2.59,15.86-1.88l-4.5,2.48-1.92,1.66c3.95-.3,8.35,1.16,11.66,3.26,1.02.64,4.58,2.96,2.03,3.45-2.03.39-4.65-.09-6.14,1.99h6.23c.21,0,3.41,1.22,3.85,1.43,9.35,4.53,8.33,19.91,2.75,27.1-.43.55-1.45.38-1.16,1.5,2.5,3.97,4.34,8.2,8.71,10.57-1.92,1.28-4.3.91-6.41.75,1.78,1.73,3.32,3.9,4.46,6.11,3.52,6.81,5.03,14.24,5.35,22.03-1.41-.74-1.81-2.29-3.14-3.09-1.82-1.09.51,1.96.56,2.1,1.86,5.35,1.24,10.91,1.84,16.28,1.32,11.92,3.02,18.88,1.02,31.24-.39,2.4-1.87,9.9-2.91,11.72-.2.36-.75.5-1.13.66l-1.51-6.8c-.7,6.39-2.42,13.22-6.06,18.59-.41.6-3.83,4.81-4.13,5.03-.27.19-.67.4-.77-.02-.09-.33.39-.64.39-.75v-5.85ZM215.31,364.7c.3,2.66-.22,5.79,0,8.5l3.09-5.78c1.28-3.48,1.87-7.54,1.07-11.21.96-.17.68.15.92.75,1.65,4.12.79,8.32-.17,12.46l2.37-2.75c2.14-3.59,1.92-10.11,0-13.77l-3.32-4.25c-.37,1.8.2,3.62.21,5.49,0,1.45-1,3.08-.02,4.52-.95.77-.76-.72-1.11-1.53-2.66-6.35-8.19-11.38-14.75-13.39-.21.95.8.88,1.14,1.41,2.39,3.71,3.21,8.88,4.15,13.13l-.75.19c-3.08-7.02-10.42-12.13-17.67-14.24-3.8-1.11-10.76-2.11-14.63-1.62-2.36.3,2.74,2,3.1,2.2,2.83,1.59,6.19,4.87,8.31,7.36.33.39.57.85.5,1.39-1.72-.4-2.81-1.88-4.27-2.72-3.69-2.1-7.92-3.15-12.17-3.33-.87-.04-2.79-.22-3.2.75,4.16.34,8.7,2.92,11.71,5.67-4.97-1.45-9.72-3.68-14.97-4.1-7.59-.61-14.52,3.71-21.29,6.56,2.99.56,6.19.67,9.15,1.44.7.18,1.26.09,1.04,1.01-9.7.19-19.44,6.37-24.93,14.16,2.3-.09,4.39-1.24,6.74-1,4.29-10.57,18.06-12.15,27.63-8.25-1.37-1.85-4.01-2.54-5.93-3.68-.42-.25-1.05-.27-.29-.85,10.4.48,12.71,11.82,20.58,16.44-5.9.41-9.97-6.07-14.96-8.45-7.31-3.48-20.2-2.73-23.74,5.62-1.97,4.64-2.15,12.25.94,16.42,1.33,1.8,5.51,4.28,6.04,6.05.14.49-.08.74-.55.55-.3-.12-3.42-2.47-3.59-2.26-.22,1.17,1.16,1.99,1.48,2.57.78,1.41,1.57,4.86,3.8,4.45l12.47-5.5c-4.66,4.04-9.09,8.48-13.04,13.21-2.17,2.6-6,7.27-6.97,10.4-.06.19-.1.62.18.56,2.51-2.59,5.88-5.1,9.12-6.74.34-.17,1-.79,1.27-.24l-7.56,7.65c-2.89,4.46-3.88,10.08-4.34,15.19,2.18-2.28,4.64-4.67,7.49-6.11.7-.35,1.74-1.06,2.52-.5-4.29,3.31-7.52,6.98-10.26,11.65-6.67,11.32-7.49,18.47-1.77,30.6l3.34,5.91c-1.19-4.89-2.01-10.23-1.5-15.29.18-1.81,1.17-3.14,1.42-4.63s-.07-2.94.14-4.4c2.07-14.76,14.64-18.38,21.49-29.6.99-1.62,2.52-4.62,2.07-6.52-2.96,3.97-6.51,7.69-10.58,10.57-.27-1.13,1.79-2.39,2.65-3.39,2.75-3.2,8.42-9.98,9.62-13.8.06-.19.1-.62-.18-.56-5.07,5.37-10.54,11.62-17.94,13.59,4.08-3.13,7.59-6.08,10.94-10.01s4.43-6.07,6.6-10.39c.17-.33,2.67-4,1.91-3.76-4.63,3.04-9.95,5.42-12.66,10.57-.4.09-1,.1-.74-.56.48-1.22,2.85-4.54,3.78-5.66,4.05-4.85,10.88-6.86,14.71-10.97,2.92-3.13,3.76-9.73,7.93-12.08-2.45-.21-4.35,3.09-6.79,3.02,3.06-3.47,7.01-6.19,11.33-7.75-.07-.59-.56-.58-.98-.72-3.03-.97-4.53-.72-7.37-2.84-.42-.31-.94,0-.71-.97,4.34,1.07,8.75,1.29,13.21,1.13l-5.29-2.44c-8.26-4.56-10.49-11.18-21.34-12.65-.36-.05-4.87.29-3.58-.76,5.95-1.09,12.09.56,16.97,3.99,3.21,2.26,6.07,5.42,9.6,7.4s7.38,2.81,11.21,3.71c-3.2-3.49-7.59-6.31-10.77-9.81-.64-.71-4.17-5.31-4.33-5.87-.14-.48.09-.76.56-.56.8.35,4.35,4.49,5.48,5.48,2.49,2.19,5.2,4.18,7.96,6.01l12.06,5.5c-2.54-5.47-5.25-11.81-9.82-16.05-.52-.48-7.18-5.18-6.8-5.47,6.17,2.27,10.25,5.74,14.04,11.09,2.62,3.71,3.29,7,5.54,10.68.97,1.59,2.18,2.81,3.28,4.28-.44-6.69,1.34-13.53-1.32-20.01,2.12,2.04,3.82,5.61,4.15,8.5ZM234.94,352.81c-1.98.3-7.63,1.99-8.5,3.77-.53,1.09-.06,4.35-.19,5.85-.25,2.81-1.44,5.44-3.02,7.74,6.25-2.02,9.38-9.61,16.24-10.19.21,1-.25.65-.74.94-1.46.85-2.88,1.44-4.17,2.64-2.6,2.41-4.58,6.31-8.3,7.76,0,.66,1.66.42,2.09.39,3.34-.22,5.7-.8,7.92-3.41,1.34-1.57,1.91-3.56,3.25-5.06,1.46-1.64,3.78-3.04,5.62-4.2-3.79-1.81-7.9-2.27-11.91-.96-1.05.34-1.67,1.24-2.81,1.15l2.33-3.9,2.2-2.52ZM257.48,371.05c-.44-.7-3.19-3.29-4.01-3.73-5.88-3.16-12.51-.19-16.64,4.36,1.89-.71,5.94,1.91,7,1.89.45-.01,3.42-2.77,6.08-2.99,1.36-.11,4.59.2,4.67,1.86-2.44-1.17-6.31.56-7.55,2.83,1.23.4,2.62-.59,3.88-.48.88.08,3.39,1.16,2.73,2.18-1.25-1.1-3.18-1.07-4.34.19,2.23,2.12,4.46,5.01,4.9,8.12-.1.13-2.45-1.54-3.02-.95l3.58,5.1c1.71-2.52,3.59-5.46,3.93-8.54.27-2.42.08-7.78-1.22-9.85ZM173.76,443.07v12.65c0,3.64-3.03,11.43-4.9,14.44-.47.76-.57,1.97-1.52,2.37.87-4.33,2.76-7.93,3.34-12.33.64-4.89.38-9.77.44-14.69l-.77-3.95c.28,1.6-1.07,2.53-1.48,3.32-.45.86-.65,1.86-1.24,2.84-.25.41-2.01,3.47-2.57,2.9,1.83-4.2,3.65-9.04,3.3-13.69l-1.41-5.19c-1.59,8.59-8.47,14.28-11.78,22.03-2.1,4.92-1.9,7.76-2.96,12.46-.03.12-1.39.76-.75,2.14-.61-.06-.71-1.62-.75-2.08-1.36-15.53,11.48-24.46,14.56-37.93,1.12-4.93.88-9.61,5.27-13.23.82-.13.6.21.42.8-.47,1.52-2.02,5.53-2.15,6.54-.41,3.13.36,7.17.03,10.41.99.17.67-.16.86-.82.54-1.84.51-3.55,1.34-5.48.13-.3,1.31-3.06,1.95-2.39-.36,2.31-1.08,5.04-1.15,7.34-.04,1.43.12,4.68.47,5.98.08.31.33.64.67.65-.07-1.31.35-2.95,1.04-4.05.24-.39-.02-.67.85-.48-.16,2.22.12,4.21.64,6.35.22.89,2,5.72,2.39,6.11.55.54.68-.03.75-.56.37-2.88-.16-6.26.76-9.26.98-.1.6,0,.76.55.64,2.19,3.26,11.88,6.15,11.84,1.02-.01,5.28-2.21,6.77-2.68,2.77-.88,5.75-1.43,8.62-1.96,1.15-3.78,4.11-8.35,8.29-8.89-1.53,2.26-4.49,5.37-4.91,8.12-.22,1.42,3.62.06,3.78.19.69.58-.47.81-.75.92-3.01,1.22-3.88-.15-3.4,4.36h4.53s-2.64,1.5-2.64,1.5c3.04.92,6.08,1.61,9.25,1.92l13.41-1.92c.19,1.07-.26.62-.83.85-4.31,1.73-9.47,2.71-14.1,2.56-2.53-.08-4.13-1.37-6.41.74l2.3,1.51,3.93-.75-1.51,1.5c2.62.95,5.1-.03,7.66-.47.29-.05,1.07-.34,1.02.28-.04.49-6.81,4.94-7.17,6.61,6.09.35,12.21-1.39,17.63-4.08,1.82-.9,7.07-3.94,8.41-5.19,2.33-2.16,1.62-6.55.02-8.95-3.29-4.94-6.24-4.38-10.85-6.25-1.95-.79-7.12-5.47-4.87-7.29,1.32-1.07,2.77.76,3.98,1.37,3.22,1.62,2.1.6,3.89-.71,4.83-3.54,8.76.63,13.27.47,3.13-.11,6.91-3.4,9.66-.72,1.28-1.78-3.65-8.47-4.92-10-3.86-4.68-14.05-12.75-14.56-18.69-.05-.59.61-3.58,1.35-2.66.1.12-.05,2.39.09,3.12s.73,2.47,1.42,2.92c-1.13-4.55,1.9-7.02-.18-11.71-.47-1.06-1.83-2.13-1.51-3.02l1.89,1.88c.72-1.88-3.47-2.58-3.81-3-.21-.27.16-1.48.22-1.53.38-.29,1.55.67,1.89.94.53.41,3.21,3.59,3.43,4.11.7,1.62.74,3.86.11,5.5-.23.58-1.67,1.56-1.28,1.91.3.27,1.93-1.19,2.5-1.46,3.59-1.7,4.89.07,8.07,1.46-.03-4.95-4.88-8.29-7.74-11.7-4.85-5.78-8.41-11.79-15.68-14.92-1-.43-2.06-.36-2.76-.65-.64-.26-.89-1.69-2.95-1.24-.68.15-3.23,2.76-3.66,3.46-.91,1.47-1.16,2.89-.52,4.55.42,1.09,3.77,6.09,4.67,7.43.44.65,1.6.81,1.46,2.12l2.64-2.64c.01,1.65-.78,3.04-.78,4.72,0,4.42,4.06,10.07,6.56,13.51l3.67,7.07c-3.49-3.97-6.87-8.32-9.6-12.87-2.87-4.79-4.68-10.7-9.11-14.31-1.95-1.59-4.15-2.25-5.84-3.98.96-.68,5.01,1.54,5.29,1.32-4.13-6.19-11.2-10.33-18.13-12.83.14,1,3.95,2.76,3.02,3.77-.18.19-3.96-1.09-5.08-1.14-2.64-.14-5.15.65-7.76.77l.75.75-4.15,1.71c.08.25,2.81.52,1.89,1.32-.42.36-6.17.91-6.8,3.21.66.55,2.88-1.68,3.02,0-.75.63-6.75,6.23-6.04,6.99.28-.18,3.97-2.44,3.39-.95-4.45,5.83-11.68,10.96-13.96,18.14-.06.19-.1.62.18.56,1.21-.93,2.73-2.23,4.23-2.57,2.5-.56-1.22,2.59-1.4,2.86-1.64,2.41-3.17,6.28-3.21,9.15.7-.41,1.48-2.19,2.45-1.7-1.93,1.01-2.19,8.03-2.64,8.5-.93.95-.77-2.09-1.5-1.89-1.12,5.07-5.17,9.7-8.87,13.23-2.54,2.42-5.63,4.35-7.95,7.16-8.85,10.72-9.47,26.18-4.68,38.98l1.1,1.43c-.23-.98-.14-2.66-.39-3.5-1.6-5.37-.71-12.24.5-17.73.89-4.07,2.84-10.64,5.25-14.01.37-.52.68-1.14,1.45-1-6.02,12.16-5.53,26.91,1.03,38.79l4.25,5.39c-1.87-7.13-2.65-13.69-.72-20.93.27-1,.54-2.69,1.48-3.24-1.88,11.42-1.63,25.92,8.69,33.24-.73-1.9-1.8-3.66-2.55-5.56-4.66-11.78-4.63-21.49.72-33.09.14-.31,1.27-3.2,1.83-2.51-5.24,15.9-3.27,35.62,9.06,47.58-1.3-4.05-1.09-8.17-1.51-12.27-.63-6.04-1.51-9.9-.7-16.2.2-1.56.28-4.11,1.46-5.15-1.78,13.29,3.21,26.28,12.27,35.89,3.43,3.64,7.63,6.78,10.97,10.54.72.81,1.21,2.05,2.06,2.66-.12-11.63-6.11-21.87-11.22-32-.51-1-1.64-2.27-2.32-3.74-.97-2.11-1.64-5.73-2.51-7.31-.09-.17-.43-.47-.56-.38-1.19,6.76,1.09,14.01,4.15,20.01-.89.21-1.21-1.03-1.57-1.63-5.5-9.24-6.42-19.94-5.23-30.47l-2.45,1.89c-.69-1.6,2.17-2.39,2.64-3.41.42-.91.42-2.94.76-4.15.61-2.18,1.56-4.22,2.08-6.42-.48-.52-4.51,3.15-5.66,2.45.58-1.42,6.04-3.44,6.37-4.01.15-.27.07-.56-.01-.83l-3.34-4.79c.2.61-.23,6.92-1.13,6.42l-2.95-4.41-1.96-3.89ZM248.16,380.75c-3.59-4.25-8.64-6.74-14.18-7.19l-3.57.76c.59,0,1.13.14,1.64.44,4.77,2.77,12.89,12.7,16.87,17.23,2.85,3.25,2.49,5.98,7.16,8.22.61.29,1.17.66,1.9.55-3.16-3.02-4.5-7.5-6.73-11.2-2.54-4.21-6.78-7.37-11.01-9.76,2.67-.69,5.3.74,7.93.94ZM133.73,384.53c-.39-.64.29-6.96,0-8.31-4.53,3.98-8.13,9.74-10.2,15.29.42.67.83-.18,1.13-.38,2.14-1.39,4.18-2.92,6.42-4.16.81-.45,3.29-1.18,3.41-1.32.78-.94-.71-1.05-.76-1.13ZM125.04,447.6c-.39.6.3,8.36,0,9.82.86.15.6-.04.85-.48.62-1.13.85-2.88,1.47-4.18,1.58-3.31,4.19-6.47,5.68-9.81.27-.62,1.39-3.35,1.43-3.54.53-2.19,1.86-9.93,1.91-12.01,0-.25.11-.62-.19-.57l-1.7,2.26c.31-6.78,2.76-14.61,7.01-19.99,1.15-1.45,3.29-2.87,4.32-4.56-5.82,2.36-8.66,7.87-12.2,12.55l-2.52,4.44c.57-2.62,1.44-6.25,2.77-8.56.12-.21.7-.35.94-.73,2.25-3.63,4.68-7.66,8.75-9.39-3.99-1.75-4.43-5.78-6.23-9.25-3.55,3.14-5.92,6.73-7.81,11.07l-2.19,5.54c.21-4.95,2.61-12.45,5.87-16.22.64-.74,2.98-2.11,3.13-2.91.11-.59-1.53-3.3-1.46-4.29-.66-.51-5.07,5.15-5.59,5.92-6.39,9.55-5.81,15.02-6.87,25.99-.18,1.81-.77,3.64-.75,5.48,3.61-4.27,7.43-8.71,8.69-14.35.98-.14.78.15.75.94-.09,2.07-1.18,5.18-1.88,7.19-2.77,8-6.97,13.93-7.2,23.02-.03,1.23.2,5.75.47,6.73.08.31.33.64.67.65-.02-.92-.03-1.82.11-2.73.79-5.19,3.29-11.34,6.16-15.75.51-.78,1.78-3.15,2.81-2.86-2.65,5.15-4.52,10.41-5.86,16.04-.52,2.17-.26,2.94-1.32,4.54ZM241.42,407.13c.34.21,1.84.09,2.32-.03,2.29-.58,3.4-5.34.27-5.2,1.02,2.43-.55,4.05-3.02,3.02-.15.17.19,2.06.43,2.21ZM256.98,407.06c-1.24-1.62-2.45-3.34-3.9-4.78-.24,4.03,2.56,6.9,2.97,10.81.38,3.64-1.27,9.62.48,12.37,2.94,4.61,5,11.02,5.6,16.67.33,3.1-1.14,3.87,2.64,5.09-.36-7.61-1.23-14.03-3.97-21.14-.85-2.21-2.56-4.66-2.63-6.81l4.72,3.39-4.91-7.92c2.43.56,3.38,3.04,5.1,4.53-.01-1.86-1.02-4.26-1.87-6.06-1.19-2.51-2.68-4.14-4.23-6.16ZM253.07,420.79v-8.88c0-1.78-3.08-5.44-2.65-7.74-3.05-.13-2.39,2.15-3.94,3.8-1.08,1.14-2.46,1.15-3.6,2.06,1.77,2.39,4.09,4.2,6.41,6.04l3.78,4.72ZM253.45,433.62c-.15-.65-.69-.77-1.28-.75-1.72.07-4.64,1.84-6.8,1.84-3.67,0-8.98-4.01-11.94-.34,3.44-1.29,8.22,1.02,8.62,4.83.17,1.62-1.16,3.45,1.2,4.62.17-1.97.9-4.13,1.89-5.86.62-.56.4.87.37,1.13-.16,1.44-.91,2.89-.56,4.35,1.97-1.55,1.97-4.45,3.33-6.3.08-.11,1.84-1.81,2.01-1.95.88-.68,2.05-1.34,3.15-1.57ZM257.02,433.81c-.25-.31-.04-.67-.55-.56-.38,2.54-1.83,4.01-3.6,5.65-2.25,2.08-5.11,4.43-6.97,7.01-4.28,5.94-1.1,10.41,4.18,13.93,3.88,2.59,3.99.81,6-2.61-.5-.13-3.15-2.33-2.64-2.83,2.84,1.34,4.13,1.76,4.53-1.89-2.51.1-4.95-1.02-7.17-2.08,1.73-1.47,5.59,1.19,7.38.84.66-.13.92-2.62.92-3.3-2.59-.03-5.15-.6-7.55-1.52.78-1.77,6.91.64,7.55,0v-4.16c-.56.53-4.57,1.78-4.53.57l4.16-1.95c-.1-2.11-.48-5.56-1.73-7.12ZM201.71,445.71c-4.96.61-9.75,2.1-14.35,3.97l4.65,3.91c3.32-1.71,6.87-3.04,10.46-4.1l-.76-3.77ZM264.67,448.84c-.2-.24-2.34-1.47-2.53-1.24l-.34,3.53,4.49,4.02c.51-1.27-.65-1.51-.73-1.79-.32-1.18-.19-3.66-.89-4.52ZM204.1,453.53c-.54-.73-.74-2.5-1.8-2.52-2-.05-7.48,3.23-9.65,3.96,1.36.79,2.42,4.46,3.9,4.25s6.24-4.97,8.56-4.82c0-.54-.8-.58-1.01-.86ZM182.45,459.69l6.41-4.34-3.96-3.59c-1.19,2.5-1.92,5.21-2.45,7.93ZM267.05,468.37v-8.5c0-.11-.5-1.89-.59-2.07l-4.88-4.92c-.21.67-1.35,2.69-1.26,3.15.08.44,1.22,1.23,1.61,1.79,1.44,2.08,3.5,5.65,4.34,7.82.29.77.04,2.35.79,2.72ZM208.88,457.05c-1.33.05-1.96-1.62-3.11-1.46-1.35.19-8.64,4.24-8.53,5.35.04.44,3.2,7.76,3.54,8.18,1.43,1.71,4.18,1.41,6.21,2.1,2.78.95,4.71,3.17,4.55,6.22l4.53-2.64-1.13,5.29c.74-.28,3.85-5.25,4.53-4.53-.62,1.12-.17,6.98.38,7.55.65.67.64-.25.78-.54.99-1.91,1.82-4.35,4.12-5.13-.32,2.96.81,6.36,3.02,8.31,0-2.29.23-5.05.89-7.26.21-.69.04-1.27,1.01-1.05-.07,1.5-.03,3.06.65,4.43.24.47.71.5.85.75.74,1.33,1.25,3.05,2.65,3.88-.24-2.58-.48-5.13-.37-7.75.02-.58-.35-1.5.56-1.32l3.03,9.05c2.36-2.68,4.62-5.68,4.72-9.44.49-.6.69.04.75.56.23,1.8-.15,3.7-.19,5.48,1.96-2.04,2.3-4.86,2.46-7.55l.87,1.2,1.01,4.08c.35-1.11.8-2.15,1.04-3.3.27-1.29-.46-3.13,1.26-2.12l1.48,3.16c.86-2.17.11-4.23,0-6.42l2.64,1.51c.35-1.21-2.57-4.47-2.26-4.91l1.5.2c-1.37-6.47-7.13-10.48-13.75-9.61-2.53.34-4.85,2.17-7.13,3.06-4.59,1.79-9.8,3.07-14.23,5.03-3.11,1.38-4.49,3.81-8.42,2.37-1.64-.6-5.17-3.68-5.2-5.41-.04-2.61,3.42-3.06,5.47-2.79.82.11,1.6.66,2.34.72,1.63.12,4.43-2.44,5.43-3.77-1.7,1.14-5.62-.9-6.81-.54-2.1.64-7.53,5.19-9.43,6.77-.3.25-.76,1-1.14.37l2.26-3.03,7.18-5.08ZM226.64,506.71c.18,1.74-.13,3.71,0,5.48,4.16-4.46,6.82-9.78,7.19-16.04.13-2.25.33-5.02-1.15-6.81l-2.27-2.08v10.39c0,1.13-1.29,4.49-2.08,5.47-.63-.31.19-1.11.19-1.32v-8.31c0-2.65-4.3-6.26-4.91-8.87-1.79,1.05-.25,3.91-2.43,4.52l-1.88-1.9-2.87-4.69c-5.78,6.26,1.27,14.92,3.12,21.44.15.52.69.73-.28.66-2.16-2.99-3.83-6.26-5.49-9.54-.12-.25-.63-.31-.74-.55-2.03-4.13-1.79-9.64-1.14-14.08l-3.02,1.89c.03-1.95.02-5.66-1.35-7.15s-6.19-1.51-8.45-3.25c-1.63-1.25-1.56-3.12-3.04-4.32.68,1.53-.73,2.33-.79,2.81-.19,1.44-.19,6.16,0,7.6.09.67.68.49.76.82.53,2.18.74,4.43,1.73,6.51l3.2,6.05c-.49-3.33-.07-6.9,1.03-10.11.47-1.38,1.34-4.08,3.13-3.86.3,1.35-.41,2.71-.39,3.95.26,13.23,13.88,19.18,12.43,34.34-.04.42-.17,2.08-.7,2.12-.22-1.45-.2-3.23-.48-4.62-1.79-9.02-7.67-13.93-11.98-21.34-.53-.91-1.07-2.04-1.15-3.12-.7.26-.41,2.21-.37,2.83.27,4.25,1.87,8.41,1.32,12.65-.9-1.37-.82-3.16-1.31-4.73-2.92-9.31-9.52-14.37-9.85-24.9-.05-1.7.24-3.16.51-4.81.23-1.37,1.92-6.41,1.01-7.11l-9.81,8.3,1.69-2.66,7.2-6.77c.3-.69-2.83-4.95-3.72-4.87-.62.06-6.41,3.94-6.94,4.59-.31.39-.38.75-.46,1.23-.71,4.36-.29,8.98-.41,13.39l1.5-2.64c.86,2.82,1.95,5.58,3.3,8.21,3.55,6.89,8.69,13.62,11.72,20.77,3.9,9.19,4.86,18.19,13.68,24.84.63.52.36-.34.29-.67-.91-4.47-2.14-8.88-2.18-13.49,2.13,2.08,2.04,5.8,2.96,8.54.61,1.83,2.12,4.32,2.52,6.56l2.07,3.4c.17-2.1.48-4.3,1.03-6.34,2.14-8.01,6.68-12.19,6.14-21.42-.05-.8-.89-4.18-.75-4.35.58-.7.81.5.93.75.74,1.57,1.54,4.89,1.72,6.61ZM255.72,488.39v-5.85c0-.36-1.15-6.39-2.26-5.1-.02,2.27-.81,4.62-1.96,6.54-1.75,2.92-3.08,3.98-2.57-.69-.14-1.18-2.14,2.12-2.45,2.46-1.18,1.25-2.66,2.09-3.79,3.39l-.75-2.26c-1.3,1.75-3.71,2.29-4.89,4.17-.95,1.51-.65,6.77-1.06,9.14-1.78,10.27-10.57,15.05-14.23,23.99-.82,2.01-1.06,4.39-1.53,6.51,5.22-6.83,12.7-11.3,16.3-19.38.81-1.83,2.58-6.94,2.58-8.75v-5.48c1.62.41,1.99,3.58,2.22,5.14.47,3.27.06,5.91.03,9.01,0,.43-.25,1.43.39,1.33,2.49-8.04,4.28-16.08,3.41-24.55,1.55,1.5,1.83,5.56,1.9,7.72.15,4.66-.98,9.29-1.9,13.8,3.61-4.88,5.45-10.01,6.36-16.1.25-1.65.4-3.38.44-5.04,1.03.91,1.93,2.85,2.44,4.16.28.72,1.59,6.06,2.08,5.66-.24-1.27,1-1.83,1.24-2.36,4.45-9.83,2.8-21.18.27-31.25.85-.91,2.02,3.65,2.2,4.03,1.63,3.56,3.9,6.95,4.98,10.69l1.16-1.67c.27-5.78-1.67-11.33-4.12-16.7l-2.7-3.52c-.39,3.56-3.12,5.18-5.55,7.35.47,1.57,1.31,3.03,1.67,4.65.78,3.5.42,7.67,1.25,11.15.08.32.68.1.77.8.33,2.4-.68,2.69-.78,3.12-.2.89.05,1.9-.28,3.08-.18.67.12.97-.86.82Z"/>
    <path d="M256.47,294.83c.09-.9,2.1-5.84,2.58-6.86,3.16-6.82,8.12-11.69,14.03-16.17-.16-.24-.37-.36-.63-.5-2.22-1.18-11.45-3.03-14.46-3.67-12.14-2.56-26.4-4.31-38.61-1.57-18.05,4.04-39.34,20.81-50.9,34.83-7.04,8.54-8.3,13.38-.58,22.1.7.79,1.69,1.18,2.29,1.86,2.91,3.32,5.12,6.56,6.59,10.78-.85.24-2.37.35-3.21.19-1.01-.19-2.99-4.88-3.95-6.14-6.03-7.85-15.54-12.59-8.71-23.98,10.84-18.06,39.69-40.39,60.73-43.8,11.47-1.86,24.64-.32,35.98,1.96,4.34.87,17.95,5.39,21.15,4.55,1.24-.32,3.14-1.72,4.52-2.27,8.69-3.46,17.53-5.51,26.99-4.72,3.49.29,5.94,1.29,9.82,1.12,7.01-.31,10.72-.93,17.86,1.03,2.7.74,11.06,4.91,12.38,5,1.85.12,8.4-1.84,10.99-2.2,18.15-2.53,31.59-1.02,46.71,9.45,14.07,9.75,23.44,22.83,30.53,38.2,4.38,9.49,8.5,16.31,3.68,26.77-4.02,8.73-8.7,19.39-16.61,25.39-3.85,2.92-9.12,5.58-12.64,8.88-8.82,8.27-14.63,20.9-27.11,25.39l-8.18,2.78c.58,1.42,1.08,2.89,1.8,4.24,6.87,12.77,14.33,25.99,18.24,40.22.09.31.67.17.75.83s.1,2.75-.04,3.35c-.07.3-.58.29-.74.54-1.46,2.39-2.49,3.09-5.58,2.08-6.67-2.2-17.34-17.74-21.12-23.81l-6.55-11.4-1.11,16.45c-2.48,14.6-4.02,30.25-6.95,45.18-2.92,14.88-7.07,29.29-8.56,44.69-.78,8.02,1.38,14.03-6.45,19.23-7.35,4.89-16.19,2.23-20.91-4.73s-3.38-11.13-4-18.66c-.43-5.21-1.88-10.77-2.26-16.25-1.62-23.35-1.67-43.36-7.13-66.14-1.48-6.16-3.48-12.22-5.34-18.27l-.84.47c-1.24,4.89-2.43,9.8-3.87,14.64-1.79,5.99-7.44,22.7-12.46,26.06-2.54,1.71-5.31,1.94-7.15-.78-2.58-3.83-1.12-16.72-.54-21.64,1.2-10.22,3.68-20.59,6.01-30.61-7.03-3.25-3.14-12.31-2.42-18.17l-5.14-6.59c.62,1.43-.68,1.94-.74,2.16-.53,1.92-.43,4.09-1.24,6.25-1.29,3.47-4.03,6.15-8.01,5.54-1.16-.18-3.81-1.61-3.03-3,2.78-.51,5.81.45,7.43-2.37,1.51-2.63,2.52-10.67,2.19-13.68-.22-1.93-1.4-4.1-1.86-6.07-.98-4.13-1.57-9.24-3.15-13.1s-5.23-8.08-6.88-12.38c-3.37-8.71-1.38-21.53-2.09-31.15-.59-8.1-8.3-17.22-15.37-21.27-10.67-6.11-22.14-3.42-32.97.68,1.41-1.84,3.97-2.71,6.05-3.57,11.51-4.77,23.12-4.7,33.41,2.83,4.04,2.96,12.28,13.23,12.28,18.31v7.55c0,.06.37,1.1.75.94l3.41-11.04c.09-.3,1.07-.7,1.12-.67.71.5-.06,6.97-.4,8.02-1.7,5.19-3.99,10.18-4.45,16.01-1.21,15.31,7.04,17.01,13.54,27.61,3.05,4.98,3.83,12.56,9.07,15.96,1.73-5.76,3.54-11.7,2.65-17.75.31.05,1.02-.08,1.12,0,.26.21,1.1,5.86,1.14,6.61.26,6.2-2.59,13.72-3.96,19.82-.99,4.36-2.68,10.31-2.84,14.53-.05,1.36-.03,2.68.39,3.98h5.48c.3,0,4.76,2.62,5.29,3.02,2.56,1.94,4.23,5.05,6.61,7.18-.61-8.18-3.09-16.03-4.45-24.07-.12-.73.02-.46.67-.48,1.62,4.53,3.11,9.09,4.57,13.67,3.23,10.13,6.13,21.38,9.37,31.57.4,1.25.63,2.92.79,4.23,2.39-.81,4.73-1.77,7.17-2.46,10.02-2.81,26.27-5.03,35.88-.38.83.4,2.12,1.33.35,1.16-13.38-1.26-23.85-1.36-37.06,1.79-1.08.26-5.28,1.04-5.55,2.02-.17.62,1.93,10.31,2.17,12.08,2.19,15.99,2.81,32.26,3.83,48.29.26,4.06.3,6.54,1.13,10.26,2.14,9.57-1.31,28.76,12.38,30.61,8.21,1.11,13.02-4.86,12.17-12.74-3.8,3.19-10.38,4.27-14.73,1.69-.49-.29-.95.07-.74-.94,5.43.94,11.63.28,15.67-3.78l.96-10.69c1.46-2.95,1.7-7.65,2.38-11.28,1.29-6.91,2.95-13.75,4.03-20.7-6.93,4.62-16.38,5.26-24.16,2.45-1.42-.51-3.67-1.6-4.54-2.82,7.48,1.72,15.48,2.92,23.05.95,1.73-.45,5.82-1.78,6.39-3.43.91-2.69.77-6.73,1.55-9.34.09-.31.62-.23.72-.54l1.9-12.19c-9.67,5.38-23.74,5.97-34.19,2.66-2.13-.67-5.66-1.75-6.6-3.79,11.17,3.1,22.73,4.27,34.07,1.4,1.31-.33,6.59-1.81,7.01-2.81,3.08-21.34,4.73-42.93,5.01-64.52l-.77-9.99c1.49,1.41,1.43,4.19,1.92,6.13,1.18,4.68,2.17,9.98,2.27,15.21.03,1.59-.47,3.47-.41,5.1,1.97-2.29,2.83-5.49,4.75-7.9,1.45-1.82,4.98-3.46,5-5.51.01-1.18-1.57-5.56-2.1-6.9-1.29-3.25-3.07-7.16-4.57-10.55-3.84-8.69-10.85-19.8-9.47-29.74.27-1.98,1.36-1.09,1.5-1.56.23-.83-.06-2.99.14-4.34.47-3.1,1.93-6.5,4.77-8.07,2.43-1.34,5.53-.05,5.63,2.8-.51.09-2.53-.13-2.64,0-.22.24-.01,4.31-2.07,6.05-1.88,1.59-4.32-.57-3.95,3,.66,0,1.34.43,1.98.33,1.29-.2,3.61-3.38,4.04-2.95-1.02,2.45-2.52,5.23-5.66,3.77l.37,3.02c-.79.78-2.06-2.52-2.64-2.64l2.64,10.95c.24-.05,1.04-.93,1.11-1.05,2.52-4.31,6.13-12.93,7.46-17.76.97-3.52,1.77-8.19,1.28-12-.04-.29-1.44-4.62-1.72-5.46-3.35-9.93-10.87-13.78-17.4-21.13-2.49-2.81-6.75-8.72-8.07-12.02-.97-2.41-1.15-5.41,2.32-4.92.63.09,2.33.65,1.61,1.44-5.41-1.82.04,6.09,1.24,7.82,3.71,5.32,9.59,9.92,14.25,14.46l-.54-14.95c-.29-.65.54-.7.72-.53.4.38,1.28,4.35,1.41,5.2.69,4.3.24,8.74,1.62,12.92l.75-6.61c2.23-19.06-12.81-31.75-29.37-37.09-9.1-2.93-13.59-1.08-22.19-1.6-4.79-.29-8.88-1.45-13.95-1.14-13.16.79-34.21,10-40.8,21.89-2.66,4.81-4.44,10.74-4.34,16.25h-1.13c.19-2.61-.26-5.56,0-8.12ZM411.69,366.21c.18,1.73-.13,3.71,0,5.48,5.36-4.5,12.27-7.73,16.77-13.25,3.91-4.79,9.31-15.94,11.36-21.88,1.71-4.95.6-7.83-1.04-12.55-6.86-19.81-20.38-38.64-38.92-49.08-13.84-7.79-30.2-7.04-45.21-3.52,8.79,5.57,16.21,14.69,16.62,25.49.54.64,2.99-3.16,3.39-3.6,11.73-12.76,26.53-7.03,37.02,3.79-.26.53-.94-.05-1.25-.26-2.27-1.47-4.3-3.21-6.8-4.53-15.07-7.93-26.7-1.64-31.63,13.75-.1.3-.65.29-.71.56-.2.84-.2,9.18,0,10.05.07.31.61.3.74.54,5.01,9.76,4.88,21.49.12,31.35-.29.61-1.19,1.19-1.69,2.48-1.06,2.75-2.87,16.1-2.59,18.96.15,1.46,2.67,6.47,3.44,8.19,2.37,5.25,7.18,13.32,6.37,19.35-.09.69-.46,1.13-.73,1.72,2.31-.24,4.55-.95,6.67-1.82,9.8-3.98,16.73-12.82,23.41-20.59,3.31-3.85,2.61-8,1.92-12.79-.48-3.32-1.56-5.69-2.5-8.52-.67-2.01-1.04-4.16-1.92-6.12l2.65,2.92c1.71,4.14,4.05,9.42,4.53,13.88ZM274.75,365.88c-1.11-1.88-2.26-4.11-3.92-5.53,1.1,4.9,1.74,11,3.8,15.57.14.31.63.36.83.77,1.62,3.34,3.15,6.59,5.75,9.33.38-.8,2.24-6.1,2.05-6.37-.04-.05-.77-.26-1.11-.59-3.74-3.58-4.85-8.86-7.4-13.19ZM380.11,416.49c-.88-1.75-6.04-13.1-6.76-13.46-.66-.32-.8.75-.75,1.17,2.6,5.45,5.49,10.82,7.36,16.58l-8.69-15.48c-.28-.16-2.88,4.44-2.88,4.71,0,.34,2.39,5.36,2.78,6.13,2.9,5.65,6.53,11.5,10.01,16.81.55.83,1.67,2.73,1.62,3.68-4.49-4.32-7.22-9.99-10.45-15.25-.26-.42-.87-.54-1.08-.89-1.2-1.98-2.65-6.05-3.96-7.64-.68-.82-1.33.71-1.16,1.51.3,1.42,4.14,8.18,5.14,9.91,3.47,6.04,7.94,12.89,12.46,18.21,1.5,1.77,8.3,9.04,10.38,8.87.81-.07.55-2.16.47-2.73-1.15-7.99-10.62-24.43-14.49-32.14ZM288.2,408.7c-.44.16-.9-.37-.95-.37-.33,0-.56.89-.68,1.2-1.38,3.66-1.48,8.48-2.55,12.12-2.84,9.72-5.29,23.62-4.53,34.09.12,1.59.27,4.76,2.41,3.52,4.84-2.79,8.28-15.12,10.1-20.43.09-.26.6-.29.78-.82,2.12-6.32,3.29-12.98,5.13-19.38l-1.03-1.62c-1.38,4.95-2.44,10.09-4.1,14.96-1.25,3.68-3.55,9.64-5.25,13.29-.25.53.23,1.03-.85.83,2.02-6.5,3.5-13.17,5.31-19.73.08-.3.62-.3.69-.58.58-2.13,2.56-8.84,2.57-10.54.01-1.08-1.4-2.22-2.16-2.95-.3-.29-2.49-2.19-2.64-2.27-.5-.27-.61-.27-.95.2l-5.47,23.92-1.14.25,5.29-25.68Z"/>
    <path d="M264.78,276.14c.26.26-1.59,2.46-1.9,2.82-2.81,3.3-6.12,6.14-8.12,10.01l-2.82,6.05c-.6-1.64-.03-3.71.48-5.37,1.14-3.66,4.39-7.6,7.27-10.11.53-.46,4.73-3.76,5.09-3.41Z"/>
    <path d="M217.57,426.83c-3.61-1.65-.58-8.36-1.3-9.82-.51-1.03-3.81-2.06-4.93-3.03-.97-.85-1.53-2.23-2.65-3.02l.38,3.77c-1.41-.83-2.41-4.04-3.68-4.63-1.61-.75-5.26-.06-7.83-.85-3.21-1-4.12-3.44-5.68-4.14-.95-.43-3.99-.47-5.74-1.06-.64-.22-2.46-.49-2.19-1.4,1.53-.07,3.1.15,4.63-.09,4.97-.77,7.26-5.26,13.42-3.04,5.62,2.02,6.45,8.78,9.89,12.39.84.88,3.24,1.58,4.51,2.67,3.63,3.11.86,5.32.78,9.05-.02,1.07.56,2.09.39,3.19ZM197.93,401.91c-7.38.34-.74,7.03,3.3,5.37,1.8-.74,3.02-3.88,1.03-4.62-.81-.3-.77,1.62-1.69,2.08-1.84.9-3.61-1.09-2.65-2.83Z"/>
    <path d="M180.94,410.97c-1.77,6.04,4.04,18.62,10.19,20.22.9.23,2.66.03,2.98.23.78.48.04,3.05.02,3.91-.02.69.49,2.36.41,2.45-.53.62-.83-.39-.94-.74-.21-.7-.45-3.56-.62-3.74-.13-.13-2.95-.47-3.65-.69-7.23-2.33-10.59-11.62-9.79-18.7.08-.71.29-3.24,1.4-2.94Z"/>
    <path d="M232.3,446.46c-8.56,1.27-17.85,3.15-26.06-.56.58-1.36,5.97.14,7.35.2,4.44.21,8.87-.25,13.24-.39,1.53-.05,4.53-.5,5.47.75Z"/>
    <path d="M207.37,418.14c-1.16-1.01-2.8-1.79-3.98-2.64-.41-.3-.41-1.01-1.01-1.26-1.44-.61-4.42-.13-6.48-.67-3.88-1.02-6.1-4.27-8.54-7.13,3.12.29,4.72,3.71,7.59,5.06,4.49,2.1,7.81.08,11.49,4.75.44.56,1.02,1.11.93,1.89Z"/>
    <path d="M204.59,433.11c-.35.7-1.51,1.99-2.01,3.08-.47,1.01-1.44,4.8-1.62,4.99-.53.57-.68-.05-.75-.56-.43-3.18,1.47-6.47,2.96-9.13,1.73-3.09,2.63-4.49,4.11-7.97.2-.47.2-1.11.86-1.22.22,3.94-1.82,7.44-3.54,10.81Z"/>
    <path d="M203.59,398.88c-2.79-1.62-5.61-1.7-8.7-.96-.98.23-5.05,2.28-5.27,2.09-.67-.56.52-.83.71-.97,2.8-2.06,5.61-3.62,9.26-3.15,1.55.2,3.69,1.3,3.99,2.99Z"/>
    <path d="M216.82,408.32c-.73.73-2.77-3.65-3.15-4.02-1.25-1.21-4.08-1.22-4.4-3.52.96.01,1.61.78,2.54,1.05.73.21,1.82-.11,2.39.26.51.34,2.17,5.32,2.63,6.25Z"/>
    <path d="M204.61,393.33c1.23,1.35,2.63,4.8,2.38,6.68l-2.89-3.14c-.45-1.45-1.36-2.82-1.26-4.41.21-.23,1.55.64,1.77.87Z"/>
    <path d="M163.19,377.35c-3.7-.44-7.23-1.12-10.95-.37l8.49,3.78c3.05.41,4.9-2.05,7.74-2.85.42-.12,3.06-.87,3.02,0-.02.42-2.24.97-2.84,1.31-1.77,1.01-3.18,2.79-5.21,3.48l-5.16,1.44c1.92.63,4.18,1.46,6.22,1.53,2.5.09,4.93-.77,7.37-.96-3.86,2.81-8.67,4.36-13.1,6.16l-9.56,6.86c.59-1.37.67-3.03,1.56-4.29.77-1.09,2.24-1.35,2.58-2.66l-6.03-4.38c1.66-.07,3.27.39,4.91.57.4.04,1.21.55,1.13-.19-2.54-.41-4.36-2.16-6.03-3.97,0-.99,3.42-.72,3.77-1.69-1.8-.57-4.03-1.35-5.81-.34-.95.54-.64,1.64-1.74,1.47-.14-6.29,6.88-8.17,12.08-7.74-1.73-1.39-4.86-2.37-7.04-2.43-1.37-.03-2.57.71-3.9.54,2.47-2.34,6.35-2.42,9.52-1.59,1.94.51,5.69,2.76,7.29,4.04.31.25,2.12,1.9,1.7,2.26Z"/>
    <path d="M353.66,381.38c.39.38.97.57,1.4,1.05.92,1.04,2.55,2.91,2.44,4.36-12.21-14.01-35.41-13.42-49.09-1.88-1.77,1.49-2.84,3.55-4.73,4.9.27-1.78,1.88-4.04,3.03-5.47,10.62-13.21,34.85-14.99,46.95-2.97Z"/>
    <path d="M359.19,406.81c-5.37-4.65-11.21-7.98-18.36-9.01-12.93-1.87-24.8,2.85-33.75,12.03.84-3.23,4.42-6.58,6.99-8.68,6.87-5.59,18.08-7.64,26.7-6.33,7.17,1.09,15.51,4.98,18.42,11.98Z"/>
    <path d="M285.18,357.34c-.02-2.22.98-4.42,1.12-6.61.46-6.89-2.8-1.97-6.68-3.88-2.96-1.46-3.15-5.41-3.52-5.73-.3-.26-2.15.43-2.83.41-.08,0-1.25-.75-1.29-.82-.45-.7.19-.63.46-.82,2.29-1.56,5.09-2.68,7.92-2.09,1.49.31,2.15,1.84,3.67,1.8l-2.51-2.59c-.61-.3-1.25-.58-1.92-.72-.98-.21-3.05.43-2.74-.84,4.79-.26,8.36,2.9,10,7.18.36.94,1.64,5.33,1.62,6.12-.06,2.21-1.65,7.08-3.3,8.6Z"/>
    <path d="M353.68,366.26c.09.1,2.36,2.17.81,1.65-1.25-.42-5.48-4.6-7.49-5.73-10.79-6.08-28.73-5.37-38.58,2.34-2.31,1.81-4.37,4.72-6.5,6.7-.42.39-.24.68-1.25.47,4.07-6.31,9.19-11.45,16.41-13.98,13.02-4.57,27.61-2.13,36.6,8.56Z"/>
    <path d="M359.19,423.81c-10.87-6.22-23.88-7.48-35.79-3.5-3.83,1.28-7.41,3.28-11.04,5.01-.13-.66.34-.93.75-1.33,10.01-9.66,30.77-11.25,42.43-3.89.51.32,4.25,3.1,3.65,3.71Z"/>
    <path d="M347.87,341.47c-3.46-1.17-6.87-2.99-10.49-3.67-9.05-1.7-19.82-.79-28.29,2.85-2.39,1.02-4.52,2.71-6.92,3.46,10.83-10.42,30.82-11.91,43.69-4.6.29.17,2.58,1.42,2.01,1.95Z"/>
    <path d="M283.42,304.59c-2.42,2.8-4.95,5.54-7.88,7.8-.29.05-.24-.36-.19-.57.24-1.18,6.65-9.35,7.94-11.22,1.93-2.81,4.44-5.76,5.12-9.34,1.05-5.51-1.53-4.29-5.22-3.33-.5.13-.72.71-.65-.27,5.62-4.36,9.51-1.86,7.76,5.11-1.09,4.35-4.06,8.56-6.87,11.82Z"/>
    <path d="M341.07,302.57c-10.99-4.73-22.84-5.92-34.01-.96l-7.91,4.74c-.4-.39,1.37-2,1.7-2.26,10.3-8.48,24.9-9.87,36.84-3.98,1.09.54,2.72,1.47,3.38,2.47Z"/>
    <path d="M328.23,346.01c.18,1.14-.27.61-.92.77-4.08,1-8.35,1.07-12.38,2.37-6.53,2.1-11.27,5.83-16.16,10.47,2.63-5.87,9.53-10.37,15.57-12.18,1.56-.47,5.04-1.41,6.52-1.41h7.36Z"/>
    <path d="M288.19,342.23c-1,.21-.65-.25-.94-.74-1.87-3.19-3.01-5.88-6.06-8.31-2.44-1.94-3.86-2.08-6.49-.27l-3.13,5.17c1.28-16.23,16.09-6.62,16.61,4.15Z"/>
    <path d="M346.36,497.08c-1.35,1.08-3.55,2.11-5.21,2.53-4.65,1.18-11.07.48-15.56-1.22-.53-.2-5.36-2.35-4.53-3.21,8.17,3.22,16.73,2.95,25.3,1.89Z"/>
    <path d="M349.75,473.66c.19.98-.21.66-.74.94-6.46,3.51-16.74,2.72-23.43.18.11-.66,1.97-.42,2.47-.39,1.06.06,2.01.38,2.99.41,6.28.22,12.49-.46,18.71-1.15Z"/>
    <path d="M333.52,281.8c-9.88-2.28-19.79-1.82-29.46,1.13,1.01-1.47,3.66-2.25,5.37-2.75,6.33-1.84,15.42-2.21,21.64.1.84.31,2.03.64,2.45,1.51Z"/>
    <path d="M349,448.74c.31.94-1.25,1.18-1.87,1.33-6.62,1.68-13.38,1.44-20.03.17-.58-.48,0-.69.56-.75,7.07-.86,14.28.13,21.34-.75Z"/>
    <path d="M262.51,314.28c-.52.55-.69-.03-.75-.56-.88-7.48-.92-16.6,3.77-22.86-.97,3.91-2.03,7.82-2.28,11.88-.15,2.57.25,5.4.01,7.94-.04.48-.63,3.46-.76,3.59Z"/>
    <path d="M344.84,515.21c.16.78-.38.88-.87,1.2-3,2.03-8.2,2.52-11.73,2.15-.9-.1-6.29-1.46-6.65-1.85-.17-.18-.12-1.02.53-.72,6.24,1.33,12.54.32,18.73-.78Z"/>
    <path d="M369.39,331.28c-1.22.27-.74-1.25-1.5-1.71-2.16-1.31-4.05,2.53-5.4,3.7l-3.29,8.2c-.08-2.98.56-6.6,1.81-9.33,1.88-4.1,8.23-8.28,8.38-.87Z"/>
    <path d="M347.49,403.03c-8.64-2.02-17.22-2.11-25.68.76.65-1.15,2.36-1.85,3.57-2.28,6.34-2.22,14.73-1.97,20.89.67.47.2,1.11.2,1.22.86Z"/>
    <path d="M344.85,507.28c-3.91,3.68-10.45,3.37-15.39,1.98-1.57-.44-3.63-.99-4.62-2.36l11.14,1.51,8.88-1.13Z"/>
    <path d="M339.37,523.89c.22-.02,3.08-1.44,2.45-.19-1.18,2.34-11.26,2.96-13.21.38-.1-1.16.41-.18.56-.18,3.19,0,7.12.3,10.2,0Z"/>
    <path d="M352.78,355.82l-6.92-4.59c-1.81-1.15-4.1-1.78-5.94-2.76-.53-.29-.93.03-.73-.95,4.06.63,7.7,2.18,10.77,4.9.42.37,3.23,2.99,2.82,3.41Z"/>
    <path d="M285.93,349.03c-2.65,5.09-9.13,2.89-10.2-2.27.54-.5,2.8,2.45,3.43,2.8,2.59,1.45,4.28-.04,6.77-.53Z"/>
    <path d="M426.05,358.66c-.03.13-.51.58-.75.57-.14-1.44-.08-3.68-.4-5.02-.07-.29-1.52-3.74-1.87-4.62-2.62-6.63-6.35-11.2-10.96-16.42,4.42,1.78,7.86,5.95,10.26,9.94,1.1,1.82,3.71,7.21,3.71,9.13,0,1.54.3,5.24,0,6.42Z"/>
    <path d="M371.92,282.67c1.9,2.64,3.03,7.33,2,10.46-.75-.14-.62-.8-.75-1.32-1.07-4.32-1.28-5.61-3.85-9.37-1.19-1.75-2.65-3.42-4.08-4.98.28-.55.92.06,1.25.26,1.34.82,4.55,3.72,5.43,4.95Z"/>
  </g>
  <text class="cls-3" transform="translate(204.23 218.04) rotate(-20.8) scale(1.01 1)"><tspan x="0" y="0">J</tspan></text>
  <text class="cls-3" transform="translate(221.9 211.14) rotate(-14.96) scale(1.01 1)"><tspan x="0" y="0">O</tspan></text>
  <text class="cls-3" transform="translate(244.28 205.15) rotate(-9.09) scale(1.01 1)"><tspan x="0" y="0">Z</tspan></text>
  <text class="cls-3" transform="translate(264.73 201.79) rotate(-3.42) scale(1.01 1)"><tspan x="0" y="0">T</tspan></text>
  <text class="cls-3" transform="translate(286.18 200.51) rotate(2.09) scale(1.01 1)"><tspan x="0" y="0">E</tspan></text>
  <text class="cls-3" transform="translate(304.91 200.78) rotate(8.81) scale(1.01 1)"><tspan x="0" y="0">M</tspan></text>
  <text class="cls-3" transform="translate(334.52 205.53) rotate(15.94) scale(1.01 1)"><tspan x="0" y="0">B</tspan></text>
  <text class="cls-3" transform="translate(355.59 211.42) rotate(22.2) scale(1.01 1)"><tspan x="0" y="0">O</tspan></text>
  <text class="cls-2" transform="translate(214.76 177.5) rotate(160.42)"><tspan x="0" y="0"> </tspan></text>
  <text class="cls-2" transform="translate(205.87 180.67) rotate(158.06)"><tspan x="0" y="0"> </tspan></text>
  <text class="cls-2" transform="translate(197.13 184.21) rotate(155.7)"><tspan x="0" y="0"> </tspan></text>
  <text class="cls-2" transform="translate(188.54 188.1) rotate(153.34)"><tspan x="0" y="0"> </tspan></text>
  <text class="cls-2" transform="translate(180.13 192.33) rotate(151)"><tspan x="0" y="0"> </tspan></text>
  <text class="cls-2" transform="translate(171.87 196.92) rotate(148.65)"><tspan x="0" y="0"> </tspan></text>
  <text class="cls-2" transform="translate(163.85 201.82) rotate(146.32)"><tspan x="0" y="0"> </tspan></text>
  <text class="cls-2" transform="translate(156 207.06) rotate(143.99)"><tspan x="0" y="0"> </tspan></text>
  <text class="cls-2" transform="translate(148.4 212.6) rotate(141.67)"><tspan x="0" y="0"> </tspan></text>
  <text class="cls-2" transform="translate(141.01 218.46) rotate(139.34)"><tspan x="0" y="0"> </tspan></text>
  <text class="cls-2" transform="translate(133.87 224.6) rotate(137.03)"><tspan x="0" y="0"> </tspan></text>
  <text class="cls-2" transform="translate(126.99 231.02) rotate(134.72)"><tspan x="0" y="0"> </tspan></text>
  <text class="cls-2" transform="translate(120.36 237.74) rotate(132.4)"><tspan x="0" y="0"> </tspan></text>
  <text class="cls-2" transform="translate(114.03 244.68) rotate(130.1)"><tspan x="0" y="0"> </tspan></text>
  <text class="cls-2" transform="translate(107.98 251.89) rotate(127.79)"><tspan x="0" y="0"> </tspan></text>
  <text class="cls-2" transform="translate(102.22 259.34) rotate(125.48)"><tspan x="0" y="0"> </tspan></text>
  <text class="cls-2" transform="translate(96.75 267.02) rotate(123.16)"><tspan x="0" y="0"> </tspan></text>
  <text class="cls-2" transform="translate(91.61 274.9) rotate(120.85)"><tspan x="0" y="0"> </tspan></text>
  <text class="cls-2" transform="translate(86.79 283.01) rotate(118.53)"><tspan x="0" y="0"> </tspan></text>
  <text class="cls-2" transform="translate(82.3 291.28) rotate(116.22)"><tspan x="0" y="0"> </tspan></text>
  <text class="cls-2" transform="translate(78.14 299.75) rotate(113.89)"><tspan x="0" y="0"> </tspan></text>
  <text class="cls-2" transform="translate(74.34 308.35) rotate(111.57)"><tspan x="0" y="0"> </tspan></text>
  <text class="cls-2" transform="translate(70.89 317.12) rotate(109.25)"><tspan x="0" y="0"> </tspan></text>
  <text class="cls-2" transform="translate(67.79 326.01) rotate(106.92)"><tspan x="0" y="0"> </tspan></text>
  <text class="cls-2" transform="translate(65.06 335.03) rotate(104.6)"><tspan x="0" y="0"> </tspan></text>
  <text class="cls-2" transform="translate(62.7 344.15) rotate(102.28)"><tspan x="0" y="0"> </tspan></text>
  <text class="cls-2" transform="translate(60.71 353.35) rotate(99.97)"><tspan x="0" y="0"> </tspan></text>
  <text class="cls-2" transform="translate(59.09 362.63) rotate(97.66)"><tspan x="0" y="0"> </tspan></text>
  <text class="cls-2" transform="translate(57.84 371.95) rotate(95.36)"><tspan x="0" y="0"> </tspan></text>
  <text class="cls-2" transform="translate(56.97 381.33) rotate(93.08)"><tspan x="0" y="0"> </tspan></text>
  <text class="cls-2" transform="translate(56.49 390.69) rotate(90.92)"><tspan x="0" y="0"> </tspan></text>
  <text class="cls-2" transform="translate(56.36 400.15) rotate(88.55)"><tspan x="0" y="0"> </tspan></text>
  <text class="cls-2" transform="translate(56.6 409.55) rotate(86.28)"><tspan x="0" y="0"> </tspan></text>
  <text class="cls-2" transform="translate(57.22 418.93) rotate(83.99)"><tspan x="0" y="0"> </tspan></text>
  <text class="cls-2" transform="translate(58.22 428.3) rotate(81.69)"><tspan x="0" y="0"> </tspan></text>
  <text class="cls-2" transform="translate(59.59 437.61) rotate(79.38)"><tspan x="0" y="0"> </tspan></text>
  <text class="cls-2" transform="translate(61.34 446.86) rotate(77.06)"><tspan x="0" y="0"> </tspan></text>
  <text class="cls-2" transform="translate(63.46 456.05) rotate(74.74)"><tspan x="0" y="0"> </tspan></text>
  <text class="cls-2" transform="translate(65.94 465.12) rotate(72.42)"><tspan x="0" y="0"> </tspan></text>
  <text class="cls-2" transform="translate(68.8 474.11) rotate(70.1)"><tspan x="0" y="0"> </tspan></text>
  <text class="cls-2" transform="translate(72.02 482.97) rotate(67.77)"><tspan x="0" y="0"> </tspan></text>
  <text class="cls-2" transform="translate(75.6 491.69) rotate(65.45)"><tspan x="0" y="0"> </tspan></text>
  <text class="cls-2" transform="translate(79.52 500.24) rotate(63.13)"><tspan x="0" y="0"> </tspan></text>
  <text class="cls-2" transform="translate(83.78 508.64) rotate(60.81)"><tspan x="0" y="0"> </tspan></text>
  <text class="cls-2" transform="translate(88.39 516.86) rotate(58.49)"><tspan x="0" y="0"> </tspan></text>
  <text class="cls-2" transform="translate(93.31 524.87) rotate(56.18)"><tspan x="0" y="0"> </tspan></text>
  <text class="cls-2" transform="translate(98.57 532.7) rotate(53.87)"><tspan x="0" y="0"> </tspan></text>
  <text class="cls-2" transform="translate(104.13 540.3) rotate(51.56)"><tspan x="0" y="0"> </tspan></text>
  <text class="cls-2" transform="translate(109.98 547.66) rotate(49.25)"><tspan x="0" y="0"> </tspan></text>
  <text class="cls-2" transform="translate(116.14 554.79) rotate(46.94)"><tspan x="0" y="0"> </tspan></text>
  <text class="cls-2" transform="translate(121.92 561.31) rotate(43.13)"><tspan x="0" y="0">T</tspan></text>
  <text class="cls-2" transform="translate(139 577.33) rotate(37.11)"><tspan x="0" y="0">O</tspan></text>
  <text class="cls-2" transform="translate(159.89 593) rotate(30.76)"><tspan x="0" y="0">U</tspan></text>
  <text class="cls-2" transform="translate(181.55 605.79) rotate(24.56)"><tspan x="0" y="0">R</tspan></text>
  <text class="cls-2" transform="translate(204.03 615.96) rotate(18.5)"><tspan x="0" y="0">S</tspan></text>
  <text class="cls-2" transform="translate(226.23 623.09) rotate(14.34)"><tspan x="0" y="0"> </tspan></text>
  <text class="cls-2" transform="translate(235.75 625.79) rotate(9.93)"><tspan x="0" y="0">A</tspan></text>
  <text class="cls-2" transform="translate(261.2 630.18) rotate(3.41)"><tspan x="0" y="0">N</tspan></text>
  <text class="cls-2" transform="translate(287.67 631.63) rotate(-2.85)"><tspan x="0" y="0">D</tspan></text>
  <text class="cls-2" transform="translate(311.67 630.14) rotate(-7.06)"><tspan x="0" y="0"> </tspan></text>
  <text class="cls-2" transform="translate(321.46 629.14) rotate(-11.2)"><tspan x="0" y="0">S</tspan></text>
  <text class="cls-2" transform="translate(344.8 624.49) rotate(-17.41)"><tspan x="0" y="0">A</tspan></text>
  <text class="cls-2" transform="translate(369.21 616.64) rotate(-23.23)"><tspan x="0" y="0">F</tspan></text>
  <text class="cls-2" transform="translate(385.21 609.99) rotate(-28.15)"><tspan x="0" y="0">A</tspan></text>
  <text class="cls-2" transform="translate(407.87 597.75) rotate(-34.41)"><tspan x="0" y="0">R</tspan></text>
  <text class="cls-2" transform="translate(427.76 583.78) rotate(-38.86)"><tspan x="0" y="0">I</tspan></text>
  <text class="cls-2" transform="translate(437.04 576.54) rotate(-43.18)"><tspan x="0" y="0">S</tspan></text>
  <circle class="cls-1" cx="288.01" cy="404.73" r="241.58"/>
</svg>